<svg xmlns="http://www.w3.org/2000/svg" version="1.1" xmlns:xlink="http://www.w3.org/1999/xlink" xmlns:svgjs="http://svgjs.dev/svgjs" width="100%" height="100%" viewBox="0 0 1000 600"><rect width="1000" height="600" x="0" y="0" fill="#e1efe6"/><g><rect width="333.3333333333333" height="333.3333333333333" rx="13.333333333333334" ry="13.333333333333334" y="187.26700591165397" fill="#ffa630" transform="matrix(0.7573702134615254,0,0,0.7573702134615256,0,31.941182775294564)" x="165.04473876953125"/><path d="M285.71251081192617 408.6798189951166L283.918912598069 406.47231350113856Q278.7588685058954 400.1257352059517 278.7588685058954 395.04847256980224Q278.7588685058954 389.9988037523275 287.31295229506026 381.63787669388574L287.31295229506026 381.63787669388574Q292.27983965651083 376.89173988183296 297.8261972101306 376.89173988183296Q303.4001485824251 376.89173988183296 313.33392330532627 386.8255146047341L313.33392330532627 386.8255146047341Q316.1208989914735 390.1919604830506 321.2809430836471 393.28246817461985Q326.4409871758208 396.3453820475143 330.8008105264274 396.3453820475143L330.8008105264274 396.3453820475143Q349.28866903849337 396.3453820475143 349.28866903849337 381.25156323243954L349.28866903849337 381.25156323243954Q349.28866903849337 376.67098933243517 344.2114064023439 373.60807545954066Q339.1617375848692 370.5175677679714 331.6010312679944 369.13787683423516Q324.0679187697944 367.7305920818241 315.32067824990645 364.66767820892966Q306.57343773001855 361.5771705173604 299.0127314131438 357.4105038974769Q291.4796189149438 353.24383727759334 286.4023562787943 344.1930647522834Q281.3526874613196 335.16988604564824 281.3526874613196 322.44913563659986L281.3526874613196 322.44913563659986Q281.3526874613196 304.95465459682396 294.34937605711525 291.95796600102835Q307.3736584715856 278.933683586558 329.8074330541373 278.933683586558L329.8074330541373 278.933683586558Q341.7279627216186 278.933683586558 351.5789559884956 282.0241912781272Q361.4023554366978 285.0871051510218 365.1827085951352 288.26039429861515L365.1827085951352 288.26039429861515L370.1495959565857 292.04074745705253Q376.30301752104947 297.80785556007015 376.30301752104947 301.7813654492306Q376.30301752104947 305.754875338391 371.529286890322 312.7085176444218L371.529286890322 312.7085176444218Q364.796395133689 322.64229236732297 357.6220022782604 322.64229236732297L357.6220022782604 322.64229236732297Q353.4553356583769 322.64229236732297 347.3019140939131 318.6687824781625L347.3019140939131 318.6687824781625Q346.6948500830692 318.28246901671633 345.0116271439109 316.68202753358224Q343.3284042047527 315.0815860504482 341.94871327101646 314.08820857815806L341.94871327101646 314.08820857815806Q337.7544528324582 311.5219834414086 331.29749926257244 311.5219834414086Q324.8405456926867 311.5219834414086 320.591097616779 314.58489731430313Q316.3140557221966 317.6754050058724 316.3140557221966 323.138981103468Q316.3140557221966 328.60255720106363 321.36372453967135 331.9690030793801Q326.4409871758208 335.36304277637134 334.0016934926955 336.54957697938454Q341.53480599089556 337.7361111823977 350.47520324150656 340.219554863123Q359.41560049211756 342.70299854384825 366.9763068089923 346.2901949715626Q374.50941930719233 349.8497975806021 379.5866819433418 358.707413375189Q384.6639445794913 367.53743535110107 384.6639445794913 380.45134249087255Q384.6639445794913 393.365249630644 379.4763066686429 403.21624289752094Q374.3162625764692 413.03964234572317 365.9829293367022 418.3928431686199L365.9829293367022 418.3928431686199Q349.8957330493373 428.933681902365 331.6010312679944 428.933681902365L331.6010312679944 428.933681902365Q322.27432055593727 428.933681902365 313.91339349749546 426.64339495236277Q305.5800602577284 424.35310800236056 300.4200161655548 420.9866621240441L300.4200161655548 420.9866621240441Q289.8791774318097 414.64008382885726 285.71251081192617 408.6798189951166L285.71251081192617 408.6798189951166Z " fill="#0b4f6c" transform="matrix(0.7573702134615254,0,0,0.7573702134615256,0,31.941182775294564)"/><path d="M586.9044269632566 380.28002120664524L585.5649572727266 378.6314431259929Q581.7114060092017 373.89178114411754 581.7114060092017 370.1000515586172Q581.7114060092017 366.32892919912507 588.0996460717295 360.0849397186544L588.0996460717295 360.0849397186544Q591.8089467531972 356.540496845252 595.9509991808361 356.540496845252Q600.1136588344832 356.540496845252 607.5322601974186 363.95909820818736L607.5322601974186 363.95909820818736Q609.6135900242422 366.4731797811821 613.4671412877669 368.7811890940954Q617.3206925512917 371.06859118100044 620.57663426058 371.06859118100044L620.57663426058 371.06859118100044Q634.3834756860431 371.06859118100044 634.3834756860431 359.7964385545403L634.3834756860431 359.7964385545403Q634.3834756860431 356.3756390371868 630.5917461005429 354.08823695028167Q626.8206237410507 351.78022763736845 621.1742438148165 350.74986633696074Q615.5484711145905 349.6988978105449 609.0159804700056 347.4114957236398Q602.483489825421 345.1034864107266 596.8371098991868 341.9917952834953Q591.2113371989608 338.8801041562641 587.4196076134604 332.12093402558963Q583.6484852539683 325.3823711209233 583.6484852539683 315.88243993116436L583.6484852539683 315.88243993116436Q583.6484852539683 302.8174586419948 593.3544887038088 293.1114551921543Q603.0810993796574 283.3848445163057 619.8347741242865 283.3848445163057L619.8347741242865 283.3848445163057Q628.7370957598089 283.3848445163057 636.0938754447199 285.6928538292189Q643.4300479036226 287.980255916124 646.2532378667397 290.3500869070617L646.2532378667397 290.3500869070617L649.9625385482075 293.17327687017877Q654.5579499480258 297.4801871058829 654.5579499480258 300.44762765105713Q654.5579499480258 303.41506819623123 650.9928998486151 308.60808915028605L650.9928998486151 308.60808915028605Q645.9647367026256 316.02669051322147 640.6068579405056 316.02669051322147L640.6068579405056 316.02669051322147Q637.4951668132744 316.02669051322147 632.899755413456 313.05924996804725L632.899755413456 313.05924996804725Q632.4463964412766 312.77074880393315 631.1893556547793 311.5755296954602Q629.9323148682819 310.38031058698726 628.9019535678742 309.63845045069377L628.9019535678742 309.63845045069377Q625.7696552146348 307.72197843193544 620.9475643287268 307.72197843193544Q616.1254734428187 307.72197843193544 612.951960637563 310.0093805188405Q609.7578406062992 312.31738983175376 609.7578406062992 316.39762058136824Q609.7578406062992 320.4778513309827 613.5289629657914 322.99193290397744Q617.3206925512917 325.5266217029804 622.9670724775258 326.412732421331Q628.5928451777519 327.29884313968165 635.2695864043937 329.1534934804155Q641.9463276310356 331.0081438211493 647.5927075572697 333.6870832022093Q653.2184802574958 336.3454153572612 657.0102098429961 342.9603349058786Q660.8019394284963 349.5546472284878 660.8019394284963 359.1988290003038Q660.8019394284963 368.84301077211984 656.9277809389635 376.19979045703076Q653.0742296754387 383.53596291593357 646.8508474209762 387.53376476151544L646.8508474209762 387.53376476151544Q634.8368346582224 395.4057250966302 621.1742438148165 395.4057250966302L621.1742438148165 395.4057250966302Q614.2090014240605 395.4057250966302 607.9650119435898 393.6953253379534Q601.7416296891274 391.98492557927665 597.8880784256025 389.4708440062819L597.8880784256025 389.4708440062819Q590.0161180904878 384.7311820244065 586.9044269632566 380.28002120664524L586.9044269632566 380.28002120664524ZM705.1486897980435 393.633503659929L705.1486897980435 393.633503659929Q690.1672364901157 393.633503659929 680.2963752322099 382.2789221294362Q670.4461212003124 370.9243405989434 670.4461212003124 354.6034176004855L670.4461212003124 354.6034176004855L670.4461212003124 328.63831283021165Q670.4461212003124 325.073262730801 670.652193460394 323.44529187615683Q670.8788729464836 321.81732102151267 671.9298414728995 319.59174061263207L671.9298414728995 319.59174061263207Q673.9905640737148 315.573331541042 683.4904952634738 315.573331541042L683.4904952634738 315.573331541042Q693.8765371715833 315.573331541042 695.6693658342928 321.2197114672762L695.6693658342928 321.2197114672762Q696.5554765526433 323.5895424582139 696.5554765526433 328.7825634122687L696.5554765526433 328.7825634122687L696.5554765526433 354.74766818254255Q696.5554765526433 360.826799854948 700.0380977480214 364.2475993723015Q703.5207189433994 367.66839888965507 709.3937783557233 367.66839888965507Q715.2462305420389 367.66839888965507 718.873102319474 364.10334879024447Q722.5205813229172 360.5382986908338 722.5205813229172 354.74766818254255L722.5205813229172 354.74766818254255L722.5205813229172 328.49406224815453Q722.5205813229172 325.073262730801 722.747260809007 323.3628629721242Q722.9533330690886 321.6730704394556 724.1485521775614 319.447490030575L724.1485521775614 319.447490030575Q726.0856314223279 315.573331541042 735.5649553860787 315.573331541042L735.5649553860787 315.573331541042Q744.9206359937805 315.573331541042 747.001965820604 319.59174061263207L747.001965820604 319.59174061263207Q748.0323271210118 321.81732102151267 748.2590066071015 323.52772078018944Q748.4856860931911 325.21751331285805 748.4856860931911 328.63831283021165L748.4856860931911 328.63831283021165L748.4856860931911 381.16613192499585Q748.4856860931911 384.4220736342842 748.2590066071015 386.13247339296095Q748.0323271210118 387.8428731516377 746.857715238547 389.92420297846127L746.857715238547 389.92420297846127Q744.6321348296664 393.77775424198603 735.4207048040216 393.77775424198603L735.4207048040216 393.77775424198603Q726.3741325864421 393.77775424198603 724.2928027596186 390.21270414257543L724.2928027596186 390.21270414257543Q722.8090824870314 387.69862256958066 722.8090824870314 384.13357247017L722.8090824870314 384.13357247017Q722.211472932795 385.1639337705777 720.1507503319796 387.10101301534417Q718.069420505156 389.0174850341025 716.1323412603896 390.35695472463254L716.1323412603896 390.35695472463254Q711.0835708883919 393.633503659929 705.1486897980435 393.633503659929ZM803.2390855968561 315.88243993116436L803.2390855968561 315.88243993116436Q816.4277102420745 315.88243993116436 827.4937906084531 327.6079515298039Q838.5392637488237 339.31285590243533 838.5392637488237 354.8300970865752Q838.5392637488237 370.32673104470695 827.5556122864775 381.96981373931385Q816.5925680501398 393.633503659929 803.9809457331496 393.633503659929Q791.3693234161594 393.633503659929 786.0114446540393 386.5034034611077L786.0114446540393 386.5034034611077Q784.8368327715746 393.77775424198603 773.2555717549922 393.77775424198603L773.2555717549922 393.77775424198603Q763.9204983732984 393.77775424198603 761.8391685464749 389.759345170396L761.8391685464749 389.759345170396Q760.7882000200591 387.53376476151544 760.5821277599775 385.8439722288468Q760.3554482738878 384.13357247017 760.3554482738878 380.71277295281647L760.3554482738878 380.71277295281647L760.3554482738878 292.1429155697711Q760.3554482738878 288.72211605241756 760.5821277599775 287.01171629374073Q760.7882000200591 285.3219237610722 761.8391685464749 283.24059393424864L761.8391685464749 283.24059393424864Q763.9204983732984 279.22218486265865 773.3998223370492 279.22218486265865L773.3998223370492 279.22218486265865Q782.755502944751 279.22218486265865 784.6925821895176 283.24059393424864L784.6925821895176 283.24059393424864Q785.8671940719823 285.46617434312924 786.093873558072 287.176574101806Q786.3205530441617 288.8663666344746 786.3205530441617 292.28716615182816L786.3205530441617 292.28716615182816L786.3205530441617 323.15679071204266Q792.25543413451 315.88243993116436 803.2390855968561 315.88243993116436ZM790.2565332117191 363.79424040012213Q793.8834049891542 367.8126494717122 799.3649271073231 367.8126494717122Q804.8670564515002 367.8126494717122 808.7206077150249 363.79424040012213Q812.5741589785498 359.7964385545403 812.5741589785498 354.89191876459967Q812.5741589785498 350.0080062006672 809.0091088791391 345.9277754510527Q805.4646660057366 341.84754470143827 799.5297849153883 341.84754470143827Q793.5949038250401 341.84754470143827 790.0916754036539 345.98959712907714Q786.6090542082759 350.1522567827243 786.6090542082759 354.9743476686323Q786.6090542082759 359.7964385545403 790.2565332117191 363.79424040012213ZM848.7810550748761 386.9567624332871L848.7810550748761 386.9567624332871Q845.957865111759 385.1639337705777 845.957865111759 381.3103825070529Q845.957865111759 377.45683124352814 851.6042450379932 369.5848709084134L851.6042450379932 369.5848709084134Q853.2322158926374 367.0707893354186 856.8590876700724 367.0707893354186Q860.5065666735156 367.0707893354186 866.7299489279782 370.6976611128537Q872.9739384084487 374.34514011629693 878.0021015544384 374.34514011629693L878.0021015544384 374.34514011629693Q887.069280998026 374.34514011629693 887.069280998026 370.7800900168863L887.069280998026 370.7800900168863Q887.069280998026 367.95690005376923 877.1159908360878 366.61743036323924L877.1159908360878 366.61743036323924Q867.7809174543941 365.27796067270924 858.5694874287492 359.6521879724832L858.5694874287492 359.6521879724832Q854.262577193045 356.9732485914232 851.4599944559361 351.26504698716457Q848.636804492819 345.556845382906 848.636804492819 337.68488504779117L848.636804492819 337.68488504779117Q848.636804492819 314.2544690765202 880.8252915175553 314.2544690765202L880.8252915175553 314.2544690765202Q891.3555840077221 314.2544690765202 902.4834860521252 319.28263222250973L902.4834860521252 319.28263222250973Q907.6765070061799 321.6730704394556 907.6765070061799 325.21751331285805Q907.6765070061799 328.7825634122687 904.4205652968916 333.97558436632346Q901.1646235876033 339.1686053203783 897.7438240702497 339.1686053203783L897.7438240702497 339.1686053203783Q895.9716026335485 339.1686053203783 891.1495117476405 336.9430249114976Q886.3274208617324 334.717444502617 880.6810409354982 334.717444502617L880.6810409354982 334.717444502617Q871.9229698820329 334.717444502617 871.9229698820329 337.9939934379135L871.9229698820329 337.9939934379135Q871.9229698820329 342.4451542556747 882.0205106260283 343.7640167201966L882.0205106260283 343.7640167201966Q891.8089429799014 344.8149852466124 900.999765779538 349.41039664643074L900.999765779538 349.41039664643074Q905.3066760152421 351.49172647325423 908.2122948823919 356.60231852327644Q911.0973065235335 361.73351779930675 911.0973065235335 369.4406203263563Q911.0973065235335 377.14772285340587 908.2122948823919 382.56742329355035Q905.3066760152421 387.9871237336948 900.1136550611875 390.6660631147548L900.1136550611875 390.6660631147548Q890.6137238714284 395.26147451457314 876.3123090217697 395.26147451457314Q861.9902869461027 395.26147451457314 848.7810550748761 386.9567624332871ZM920.7414882953494 362.61962851765736L920.7414882953494 291.99866498771405Q920.7414882953494 288.5778654703605 920.9681677814392 286.8674657116837Q921.1948472675288 285.1570659530069 922.2252085679365 282.9314855441263L922.2252085679365 282.9314855441263Q924.3065383947601 278.9336836985444 933.806469584519 278.9336836985444L933.806469584519 278.9336836985444Q942.8530418020986 278.9336836985444 945.0786222109791 282.9314855441263L945.0786222109791 282.9314855441263Q946.253234093444 285.1570659530069 946.4799135795337 286.9498946157163Q946.7065930656233 288.72211605241756 946.7065930656233 292.1429155697711L946.7065930656233 292.1429155697711L946.7065930656233 360.826799854948Q946.7065930656233 366.18467861706796 947.592703783974 367.58596998562246Q948.4788145023246 368.98726135417695 951.5286839515313 368.98726135417695Q954.5785534007382 368.98726135417695 955.6089147011459 369.2139408402666Q956.6392760015535 369.4406203263563 958.1229962741406 370.470981626764L958.1229962741406 370.470981626764Q961.0904368193148 372.4080608715305 961.0904368193148 381.0218813429388L961.0904368193148 381.0218813429388Q961.0904368193148 390.35695472463254 958.1229962741406 392.43828455145604L958.1229962741406 392.43828455145604Q954.2694450106159 395.117223932516 939.7413506748674 393.32439526980664L939.7413506748674 393.32439526980664Q928.304340240342 391.8406749972196 924.9041479489965 385.76154332481417L924.9041479489965 385.76154332481417Q920.7414882953494 378.48719254393586 920.7414882953494 362.61962851765736L920.7414882953494 362.61962851765736ZM969.2508983185437 380.8570235348736L969.2508983185437 328.7825634122687Q969.2508983185437 325.3823711209233 969.4775778046334 323.67197136224655Q969.704257290723 321.9615716035698 970.7346185911308 319.7359911946891L970.7346185911308 319.7359911946891Q972.8159484179544 315.88243993116436 982.3158796077132 315.88243993116436L982.3158796077132 315.88243993116436Q989.4459798065345 315.88243993116436 992.4134203517087 318.3965215041591L992.4134203517087 318.3965215041591Q994.9275019247034 320.4778513309827 995.0717525067605 324.7847615666868L995.0717525067605 324.7847615666868Q995.2160030888176 326.26848183927393 995.2160030888176 329.091671802391L995.2160030888176 329.091671802391L995.2160030888176 381.0218813429388Q995.2160030888176 384.4220736342842 995.0099308287361 386.13247339296095Q994.7832513426464 387.8428731516377 993.5880322341734 390.0684535605183L993.5880322341734 390.0684535605183Q991.6715602154152 393.9220048240431 982.1716290256562 393.9220048240431L982.1716290256562 393.9220048240431Q972.8159484179544 393.9220048240431 970.7346185911308 389.92420297846127L970.7346185911308 389.92420297846127Q969.704257290723 387.69862256958066 969.4775778046334 386.05004448892834Q969.2508983185437 384.4220736342842 969.2508983185437 380.8570235348736L969.2508983185437 380.8570235348736ZM993.6704611382061 301.27191669138324Q992.5576709337657 303.41506819623123 989.7344809706487 304.3011789145819Q986.9112910075316 305.1872896329325 982.2334507036807 305.1872896329325Q977.5762176258379 305.1872896329325 974.7530276627208 304.3011789145819Q971.9298376996037 303.41506819623123 970.8170474951635 301.18948778735063Q969.704257290723 298.96390737847 969.4775778046334 297.25350761979325Q969.2508983185437 295.5431078611165 969.2508983185437 292.1429155697711Q969.2508983185437 288.72211605241756 969.4775778046334 287.01171629374073Q969.704257290723 285.3219237610722 970.7346185911308 283.24059393424864L970.7346185911308 283.24059393424864Q972.8159484179544 279.22218486265865 982.3158796077132 279.22218486265865L982.3158796077132 279.22218486265865Q991.6715602154152 279.22218486265865 993.5880322341734 283.24059393424864L993.5880322341734 283.24059393424864Q994.7832513426464 285.46617434312924 995.0099308287361 287.176574101806Q995.2160030888176 288.8663666344746 995.2160030888176 292.28716615182816Q995.2160030888176 295.7079656691817 995.0099308287361 297.3977582018503Q994.7832513426464 299.10815796052714 993.6704611382061 301.27191669138324ZM1043.1484107837834 316.76855064951496L1052.7925925555996 315.88243993116436Q1063.034383881652 315.88243993116436 1064.8066053183534 321.5082126313904L1064.8066053183534 321.5082126313904Q1065.6927160367038 324.33140259450744 1065.6927160367038 328.92681399432576Q1065.6927160367038 333.54283262015224 1064.7447836403287 336.28359367923673Q1063.7762440179456 339.02435473832116 1061.694914191122 340.2195738467941L1061.694914191122 340.2195738467941Q1058.5832230638907 341.9917952834953 1052.6483419735425 341.9917952834953L1052.6483419735425 341.9917952834953L1043.1484107837834 341.3941857292589L1043.1484107837834 381.16613192499585Q1043.1484107837834 386.7919046252219 1041.747119415229 389.5532729103145Q1040.3252208206663 392.294033969399 1037.440209179525 393.1801446877496Q1034.5345903123753 394.0662554061002 1029.9391789125568 394.0662554061002Q1025.3437675127386 394.0662554061002 1022.6030064536542 393.097715783717Q1019.8622453945696 392.14978338734187 1018.6670262860968 389.98602465648577Q1017.4718071776238 387.8428731516377 1017.2657349175422 386.05004448892834Q1017.0390554314527 384.2778230522271 1017.0390554314527 380.8570235348736L1017.0390554314527 380.8570235348736L1017.0390554314527 341.53843631131593L1011.7017838953407 341.53843631131593Q1007.8276254058078 341.2499351472018 1006.1996545511636 339.7662148746147L1006.1996545511636 339.7662148746147Q1003.3764645880465 336.9430249114976 1003.3764645880465 328.92681399432576L1003.3764645880465 328.92681399432576Q1003.3764645880465 316.76855064951496 1012.1345356415119 316.76855064951496L1012.1345356415119 316.76855064951496L1017.0390554314527 316.76855064951496L1017.0390554314527 308.8965903144002Q1017.0390554314527 297.4801871058829 1025.1995169306815 288.20693540221373Q1033.3599784299104 278.9336836985444 1048.7947907100177 278.9336836985444L1048.7947907100177 278.9336836985444Q1052.1949830013632 278.9336836985444 1053.9053827600399 279.16036318463415Q1055.6157825187165 279.3870426707239 1057.8413629275972 280.56165455318865L1057.8413629275972 280.56165455318865Q1061.8391647731792 282.4987337979551 1061.8391647731792 291.99866498771405L1061.8391647731792 291.99866498771405Q1061.8391647731792 299.10815796052714 1059.3250832001843 302.21984908775835L1059.3250832001843 302.21984908775835Q1057.2437533733607 304.6102873047042 1052.7925925555996 304.89878846881834L1052.7925925555996 304.89878846881834Q1051.4531228650696 304.89878846881834 1048.6299329019525 304.89878846881834L1048.6299329019525 304.89878846881834Q1043.1484107837834 304.89878846881834 1043.1484107837834 308.60808915028605L1043.1484107837834 308.60808915028605L1043.1484107837834 316.76855064951496ZM1146.5554708926998 316.6243000674579L1146.5554708926998 316.6243000674579Q1155.313541946165 320.4778513309827 1155.313541946165 325.9593734491516L1155.313541946165 325.9593734491516Q1155.313541946165 328.63831283021165 1154.1389300637002 331.0081438211493Q1152.9437109552273 333.377974812087 1152.9437109552273 333.54283262015224L1152.9437109552273 333.54283262015224L1114.0784827038492 420.48471914855344Q1112.8832635953763 423.30790911167054 1112.05897455505 424.79162938425765Q1111.255292740732 426.27534965684475 1109.4624640780225 427.5942121213665Q1107.6902426413217 428.9336818118966 1105.0113032602615 428.9336818118966Q1102.3529711052097 428.9336818118966 1097.159950151155 426.708101403016L1097.159950151155 426.708101403016Q1088.4018790976895 422.85455013949115 1088.4018790976895 417.51727860337934L1088.4018790976895 417.51727860337934Q1088.4018790976895 413.9522285039687 1102.641472269324 383.53596291593357L1102.641472269324 383.53596291593357L1073.1113173996393 333.8313337842664Q1070.1438768544651 328.92681399432576 1070.1438768544651 326.5569830033881L1070.1438768544651 326.5569830033881Q1070.1438768544651 321.81732102151267 1078.1600877716369 317.05705181362913L1078.1600877716369 317.05705181362913Q1083.2088581436346 314.089611268455 1086.0320481067517 314.089611268455Q1088.8552380698688 314.089611268455 1090.6274595065702 315.2848303769279Q1092.3996809432715 316.48004948540085 1093.2239699835977 317.73709027189824Q1094.0482590239235 318.9941310583956 1101.3844314828264 331.5233244713532Q1108.7206039417292 344.07312511031887 1115.397345168371 354.89191876459967L1115.397345168371 354.89191876459967Q1116.1392053046645 352.52208777366195 1123.413556085543 336.57209484335084Q1130.6879068664211 320.6221019130398 1131.2030875166251 319.59174061263207Q1131.718268166829 318.54077208621624 1132.9134872753018 317.05705181362913L1132.9134872753018 317.05705181362913Q1134.8505665200685 314.54297024063436 1138.3331877154465 314.54297024063436Q1141.8158089108242 314.54297024063436 1146.5554708926998 316.6243000674579Z " fill="#0b4f6c" transform="matrix(0.7573702134615254,0,0,0.7573702134615256,0,31.941182775294564)"/></g></svg>