<svg xmlns="http://www.w3.org/2000/svg" x="0px" y="0px"
width="50" height="60"
viewBox="0,0,256,256"
style="fill:#000000;">
<g transform="translate(-16,-16) scale(1.125,1.125)"><g fill="none" fill-rule="nonzero" stroke="none" stroke-width="1" stroke-linecap="butt" stroke-linejoin="miter" stroke-miterlimit="10" stroke-dasharray="" stroke-dashoffset="0" font-family="none" font-weight="none" font-size="none" text-anchor="none" style="mix-blend-mode: normal"><g transform="scale(5.33333,5.33333)"><path d="M41.969,21h-14.969c-1.105,0 -2,0.895 -2,2v3c0,1.105 0.895,2 2,2h1l4,-1l4.364,1c-1.752,5.403 -6.945,9.269 -12.987,8.985c-6.64,-0.311 -12.104,-5.818 -12.367,-12.46c-0.146,-3.698 0.631,-8.071 2.99,-10.525c2.367,-2.462 6.322,-3 10,-3c2.751,0 5.307,0.858 7.411,2.321c0.808,0.562 1.89,0.499 2.587,-0.195l2.154,-2.145c0.849,-0.845 0.789,-2.268 -0.17,-2.987c-3.37,-2.529 -7.563,-4.021 -12.104,-3.994c-10.45,0.063 -19.266,8.429 -19.846,18.863c-0.642,11.544 8.561,21.137 19.968,21.137c5.771,0 10.347,-3.078 14,-7c3.329,-3.573 6,-7.741 6,-13c0,-0.386 -0.011,-0.77 -0.033,-1.15c-0.06,-1.045 -0.951,-1.85 -1.998,-1.85z" fill="#fca66c"></path><path d="M24,44c-0.553,0 -1,-0.447 -1,-1c0,-0.553 0.447,-1 1,-1c9.925,0 18,-8.075 18,-18c0,-0.553 0.447,-1 1,-1c0.553,0 1,0.447 1,1c0,11.028 -8.972,20 -20,20z" fill="#324561"></path><path d="M36,28h-8c-0.553,0 -1,-0.447 -1,-1c0,-0.553 0.447,-1 1,-1h8c0.553,0 1,0.447 1,1c0,0.553 -0.447,1 -1,1z" fill="#324561"></path><path d="M10.011,25.563c-0.534,0 -0.977,-0.422 -0.998,-0.96c-0.163,-4.118 1.319,-8.021 4.176,-10.993c2.856,-2.972 6.696,-4.61 10.811,-4.61c0.553,0 1,0.447 1,1c0,0.553 -0.447,1 -1,1c-3.565,0 -6.894,1.419 -9.37,3.997c-2.475,2.575 -3.761,5.958 -3.619,9.526c0.022,0.553 -0.407,1.018 -0.959,1.039c-0.014,0.001 -0.028,0.001 -0.041,0.001z" fill="#324561"></path></g></g></g>
</svg>